# File created by Blade
# Date/Time:  Fri Jan 16 19:14:28 2015
# Frame Rate: 120.000 fps
#------------------------------------------------------
:FULLY-SPECIFIED
:DEGREES
1008
root 18.942852 35.756096 -22.196319 -167.896603 -2.040125 -178.674394
Spine -25.417959 1.593951 -0.777964
Head 14.945268 -4.228315 0.311491
LeftShoulder -14.990610 -52.395747 41.105047
LeftArm 30.699997 -8.273883 7.402314
LeftForeArm 14.837633 -0.000000 -1.302213
LeftHand -0.845366 -0.000000 -9.510064
LeftHandThumb1 -26.253704 0.000000 33.147579
RightShoulder -9.657930 15.883829 -33.521429
RightArm 10.720797 42.249083 -12.543661
RightForeArm -48.811411 -0.000000 4.556577
RightHand 0.674235 -0.000000 -2.051501
RightHandThumb1 -24.326973 -0.000000 -32.862282
LeftUpLeg -2.617357 6.678994 0.335940
LeftLeg -7.396237 -0.000000 0.000000
LeftFoot -19.831849 28.204016 -15.931816
LeftToeBase 23.480027 -0.000000 -0.000000
RightUpLeg -4.089053 -9.945530 1.236352
RightLeg -3.967493 -0.000000 0.000000
RightFoot -19.792176 -23.024986 20.224395
RightToeBase 22.710374 -0.000000 -0.000000
1009
root 18.943319 35.755619 -22.190914 -167.890554 -2.017947 -178.672006
Spine -25.393129 1.556499 -0.776445
Head 14.877117 -4.197522 0.380289
LeftShoulder -14.848795 -52.150053 40.707912
LeftArm 30.137233 -7.957583 7.549538
LeftForeArm 15.117112 0.000000 -1.264957
LeftHand -1.023783 -0.000000 -9.636772
LeftHandThumb1 -26.253704 0.000000 33.147579
RightShoulder -9.632830 15.737099 -33.048359
RightArm 10.215560 42.236191 -12.576794
RightForeArm -48.596139 -0.000000 4.525334
RightHand 0.627377 -0.000000 -1.657987
RightHandThumb1 -24.326973 -0.000000 -32.862282
LeftUpLeg -2.630050 6.720820 0.328971
LeftLeg -7.399970 -0.000000 0.000000
LeftFoot -19.824658 28.202224 -15.910572
LeftToeBase 23.510475 -0.000000 -0.000000
RightUpLeg -4.110119 -9.906568 1.236245
RightLeg -3.960411 -0.000000 0.000000
RightFoot -19.793394 -23.062183 20.200349
RightToeBase 22.743285 -0.000000 -0.000000
1010
root 18.943628 35.755006 -22.185947 -167.886905 -1.994516 -178.670176
Spine -25.361712 1.516931 -0.774671
Head 14.806885 -4.170909 0.431320
LeftShoulder -14.759279 -52.029747 40.413068
LeftArm 29.529733 -7.540294 7.647890
LeftForeArm 15.489298 -0.000000 -1.185874
LeftHand -1.128835 -0.000000 -9.689190
LeftHandThumb1 -26.253704 0.000000 33.147579
RightShoulder -9.572531 15.477796 -32.577742
RightArm 9.605463 42.369927 -12.606257
RightForeArm -48.562824 -0.000000 4.556064
RightHand 0.471791 -0.000000 -1.362192
RightHandThumb1 -24.326973 -0.000000 -32.862282
LeftUpLeg -2.637889 6.744426 0.327752
LeftLeg -7.398751 -0.000000 0.000000
LeftFoot -19.816525 28.188202 -15.891843
LeftToeBase 23.525915 -0.000000 -0.000000
RightUpLeg -4.124933 -9.904838 1.237877
RightLeg -3.959403 -0.000000 0.000000
RightFoot -19.786100 -23.045999 20.174858
RightToeBase 22.768733 -0.000000 -0.000000
1011
root 18.944018 35.754592 -22.180523 -167.878719 -1.974028 -178.664132
Spine -25.335111 1.497365 -0.778722
Head 14.729499 -4.165509 0.503511
LeftShoulder -14.591100 -51.897011 40.061134
LeftArm 28.885608 -7.080781 7.820509
LeftForeArm 15.858854 -0.000000 -1.096156
LeftHand -1.375292 0.000000 -9.567202
LeftHandThumb1 -26.253704 0.000000 33.147579
RightShoulder -9.620696 15.418173 -32.194880
RightArm 9.176937 42.275517 -12.462733
RightForeArm -48.512430 -0.000000 4.602320
RightHand 0.383299 0.000000 -1.081532
RightHandThumb1 -24.326973 -0.000000 -32.862282
LeftUpLeg -2.649421 6.753749 0.328969
LeftLeg -7.406378 -0.000000 0.000000
LeftFoot -19.821690 28.217275 -15.861018
LeftToeBase 23.570769 -0.000000 -0.000000
RightUpLeg -4.146330 -9.894041 1.244849
RightLeg -3.955496 -0.000000 0.000000
RightFoot -19.767510 -23.057540 20.122266
RightToeBase 22.747665 -0.000000 -0.000000
1012
root 18.944418 35.754213 -22.176155 -167.879364 -1.941806 -178.654020
Spine -25.294374 1.483469 -0.781022
Head 14.616891 -4.152770 0.600903
LeftShoulder -14.446619 -51.837220 39.758493
LeftArm 28.232545 -6.567192 7.975184
LeftForeArm 16.126194 -0.000000 -1.018462
LeftHand -1.488956 0.000000 -9.615657
LeftHandThumb1 -26.253704 0.000000 33.147579
RightShoulder -9.635759 15.457703 -31.826142
RightArm 8.707267 42.008423 -12.344888
RightForeArm -48.496961 -0.000000 4.632003
RightHand 0.275261 -0.000000 -0.714922
RightHandThumb1 -24.326973 -0.000000 -32.862282
LeftUpLeg -2.648282 6.784597 0.330764
LeftLeg -7.416910 -0.000000 0.000000
LeftFoot -19.822262 28.238067 -15.861769
LeftToeBase 23.532093 -0.000000 -0.000000
RightUpLeg -4.159142 -9.880139 1.253794
RightLeg -3.954303 -0.000000 0.000000
RightFoot -19.761946 -23.036186 20.129164
RightToeBase 22.757604 -0.000000 -0.000000
